<svg xmlns="http://www.w3.org/2000/svg" viewBox="0 0 360 200" class="scene gate-scene" aria-hidden="true"><rect width="360" height="200" fill="#fbebc0"></rect><g class="sun"><circle cx="272" cy="96" r="46" fill="#f6c453" opacity="0.28"></circle><circle cx="272" cy="96" r="30" fill="#f6c453"></circle></g><path d="M60 56q4-5 8 0q4-5 8 0" transform="translate(60 56) scale(1) translate(-60 -56)" fill="none" stroke="#5b544d" stroke-width="1.6" stroke-linecap="round"></path><path d="M96 44q4-5 8 0q4-5 8 0" transform="translate(96 44) scale(0.8) translate(-96 -44)" fill="none" stroke="#5b544d" stroke-width="1.6" stroke-linecap="round"></path><g transform="translate(40 78) scale(1.1)" opacity="0.95"><path d="M0 18q-10 0-10-9t10-9q4-10 16-10t16 10q10 0 10 9t-10 9z" fill="#ffffff"></path></g><g transform="translate(190 40) scale(0.85)" opacity="0.9"><path d="M0 18q-10 0-10-9t10-9q4-10 16-10t16 10q10 0 10 9t-10 9z" fill="#ffffff"></path></g><path d="M0 150C60 118 120 116 180 132S300 128 360 106V200H0z" fill="#e3ecd9"></path><path d="M0 176C70 148 140 144 210 158S330 156 360 140V200H0z" fill="#8fb07f" opacity="1"></path><path d="M0 200C60 168 130 164 200 176S320 172 360 160V200z" fill="#6c9160"></path><g transform="translate(52 150) scale(1.1)"><rect x="-2" y="0" width="4" height="14" rx="2" fill="#6b4f3f"></rect><circle cx="0" cy="-6" r="11" fill="#6c9160"></circle><circle cx="-6" cy="0" r="7" fill="#6c9160"></circle><circle cx="6" cy="0" r="7" fill="#6c9160"></circle></g><g transform="translate(318 128) scale(0.9)"><rect x="-2" y="0" width="4" height="14" rx="2" fill="#6b4f3f"></rect><circle cx="0" cy="-6" r="11" fill="#6c9160"></circle><circle cx="-6" cy="0" r="7" fill="#6c9160"></circle><circle cx="6" cy="0" r="7" fill="#6c9160"></circle></g><g transform="translate(300 140) scale(0.7)"><rect x="-2" y="0" width="4" height="14" rx="2" fill="#6b4f3f"></rect><circle cx="0" cy="-6" r="11" fill="#8fb07f"></circle><circle cx="-6" cy="0" r="7" fill="#8fb07f"></circle><circle cx="6" cy="0" r="7" fill="#8fb07f"></circle></g><path d="M12 176C60 172 84 150 128 148S200 166 246 150s60-30 96-30" fill="none" stroke="#ffffff" stroke-width="3" stroke-linecap="round" stroke-dasharray="1 9" opacity=".9"></path><g class="flag" transform="translate(342 120)"><rect x="-1.5" y="-30" width="3" height="32" rx="1.5" fill="#ffffff"></rect><path d="M1 -30h20l-6 7 6 7H1z" fill="#f08a4c"></path></g><g class="walker "><circle r="11" fill="#f08a4c"></circle><circle r="11" fill="#f08a4c" class="pulse" opacity=".35"></circle><circle r="4.5" fill="#ffffff"></circle></g></svg>