<svg class="pip pip-cheer pose-stand " viewBox="0 0 200 200" role="img" aria-label="Pip the penguin cheers"><ellipse cx="100" cy="185" rx="52" ry="7" fill="#d9bec7" opacity=".3"></ellipse><g class="feet"><ellipse class="foot-l" cx="80" cy="184" rx="15" ry="6.5" fill="#f2a56a"></ellipse><ellipse class="foot-r" cx="120" cy="184" rx="15" ry="6.5" fill="#f2a56a"></ellipse></g><defs><linearGradient id="pip-body" x1="0" y1="0" x2="0" y2="1"><stop offset="0" stop-color="#9c9ed0"></stop><stop offset="1" stop-color="#6e70a4"></stop></linearGradient><radialGradient id="pip-belly" cx=".5" cy=".35" r=".7"><stop offset="0" stop-color="#fffdf9"></stop><stop offset="1" stop-color="#fbf3ea"></stop></radialGradient></defs><g class="body"><path d="M100 32c44 0 76 36 76 78s-32 72-76 72-76-30-76-72 32-78 76-78z" fill="url(#pip-body)"></path><path d="M100 64c34 0 58 26 58 60 0 32-24 54-58 54s-58-22-58-54c0-34 24-60 58-60z" fill="url(#pip-belly)"></path><path class="flipper flipper-l" d="M46 104c-20-10-36-32-28-48 6-8 18 0 30 22" fill="url(#pip-body)"></path><path class="flipper flipper-r" d="M154 104c20-10 36-32 28-48-6-8-18 0-30 22" fill="url(#pip-body)"></path><path d="M100 36c-3-7-13-9-13-2 0 5 8 9 13 14 5-5 13-9 13-14 0-7-10-5-13 2z" fill="#f6b9c4"></path><ellipse cx="56" cy="122" rx="13" ry="7.5" fill="#f6b9c4" opacity=".85"></ellipse><ellipse cx="144" cy="122" rx="13" ry="7.5" fill="#f6b9c4" opacity=".85"></ellipse><g class="eyes"><path d="M65 98q9-11 18 0" fill="none" stroke="#2e2a3b" stroke-width="4.5" stroke-linecap="round"></path><path d="M117 98q9-11 18 0" fill="none" stroke="#2e2a3b" stroke-width="4.5" stroke-linecap="round"></path></g><g><path d="M91 107q9-7 18 0-4 4-9 4t-9-4z" fill="#f2a56a"></path><path d="M92 118q8 10 16 0z" fill="#c9727f"></path></g></g><g class="sparkles" fill="#f3c46b"><path d="m30 36 3 8 8 3-8 3-3 8-3-8-8-3 8-3zM170 42l2 6 6 2-6 2-2 6-2-6-6-2 6-2zM164 148l2 5 5 2-5 2-2 5-2-5-5-2 5-2z"></path></g></svg>